<svg height="63" viewBox="0 0 268 63" width="268" xmlns="http://www.w3.org/2000/svg"><g fill="none" fill-rule="evenodd"><g fill-rule="nonzero" transform="matrix(1 0 0 -1 .187683 62.76129)"><path d="m18.4371479 61.0878847c-1.247075-1.6339385-3.3133071-2.9600335-5.7463259-3.7059619l-.9536456-.2841632v-4.7597339-4.7715741h11.7371763 11.7371764v4.7715741 4.7597339l-.9536456.2960033c-2.4819237.7696087-4.4747985 2.0483432-5.7585521 3.7059619l-.5257277.6748877h-4.499251-4.4992509zm6.1497914-2.5219486c.5012752-.3433638.7213473-.8169692.7335735-1.5747378.0244524-1.0064114-.5868588-1.681299-1.626088-1.7760201-.6846686-.0592007-1.4426946.2604829-1.8094814.7577686-.5379539.7222482-.3056556 2.0483432.4523704 2.5929893.489049.343364 1.7483502.343364 2.2496255 0z" fill="#575757"/><path d="m1.48403854 55.3395825-1.48403854-1.4810202v-25.9238731-25.9118324l.98935903-1.0114284.98935903-1.0114284h21.18676164 21.1867616l.989359 1.0114284.9893591 1.0114284v25.9118324 25.9238731l-1.4719732 1.4810202-1.4840385 1.493061h-3.3421031-3.3541684v-1.9265303-1.9265303h2.5095936 2.5095936l.3860914-.3973469.3860913-.3973468v-24.2020368-24.20203671l-.4584835-.44551013-.4584834-.44551013h-18.3996648-18.39966492l-.4464181.45755095-.4464181.45755094v24.20203668 24.2020368l.39815668.3853061.39815668.385306h2.49752831 2.49752825v1.9265303 1.9265303h-3.34210303-3.35416844z" fill="#575757"/><path d="m22.2621248 35.711869-2.8486992-5.6737306-.5793964.8498626c-.3259105.4548561-.6638918.9097121-.7483871.9935014-.0844953.0957592-.1569199.1915183-.1569199.227428s-.2534859.4189463-.5552549.8498626l-.5552549.7780432h-4.3937564-4.39375638v-1.9151833-1.9151833h3.35567108l3.3436003-.0119699.651821-.9815315c.3621228-.5386453.7725286-1.1730498.9173777-1.4004778.9656607-1.5321467 2.7642039-4.2612829 2.8486992-4.2852227.0603538-.0239398.1086368-.1077291.1086368-.1795484 0-.1795485.5673257-.8857724.6397503-.8019831.0241415.0359097 1.3157127 2.5735276 2.8607699 5.6617607 1.5450572 3.0762633 2.8366285 5.5899414 2.8607699 5.5899414.0844954 0 .3983351-.3351571.3983351-.4189463 0-.0718194 1.0622268-1.6039661 1.207076-1.7356349.0362122-.0359097.2655567-.3710668.5190426-.7421336l.4466181-.6942539h5.3714879 5.3714878v1.9151833 1.9151833h-4.3334026-4.3213317l-.7725286 1.2089596c-.4224766.6583442-1.0380854 1.603966-1.3760666 2.1067016-.3259105.5027356-.651821 1.0054713-.7242456 1.1012304-.0603538.1077291-.3621227.5625851-.6638917 1.0174412-.9173777 1.4124477-1.0863684 1.6757854-1.2312175 1.9630629-.0724245.1436387-.1931321.2633377-.2655567.2633377-.0724245 0-1.4122788-2.5615577-2.9814775-5.6857006z" fill="#396598"/><g fill="#575757"><path d="m8.03069962 14.2081609v-1.8532384h7.72182658 7.7218265v1.8532384 1.8532383h-7.7218265-7.72182658z"/><path d="m8.03069962 8.64844575v-1.85323838h4.94196898 4.941969v1.85323838 1.85323835h-4.941969-4.94196898z"/></g></g><path d="m73.7056452 27.3608871c-3.1707148 0-5.7063077-.9973019-7.6068549-2.9919355-1.9005471-1.9946336-2.8508064-4.6525371-2.8508064-7.9737903 0-3.3588878.9549635-6.0261998 2.8649193-8.00201614 1.9099558-1.97581633 4.487887-2.96370968 7.733871-2.96370968 3.2271667 0 5.7980415.98789335 7.7127016 2.96370968 1.9146601 1.97581634 2.8719758 4.62901564 2.8719758 7.95967744 0 3.405931-.9573157 6.09206-2.8719758 8.0584677s-4.5325775 2.9495968-7.8538306 2.9495968zm.0564516-2.8790323c1.8629125 0 3.3376962-.7315115 4.4243951-2.1945564 1.086699-1.463045 1.6300404-3.445888 1.6300404-5.9485887 0-2.4274315-.5456935-4.3749927-1.6370968-5.842742-1.0914033-1.46774923-2.5356093-2.20161286-4.3326613-2.20161286-1.8158693 0-3.2671317.73386363-4.3538307 2.20161286-1.0866989 1.4677493-1.6300403 3.4294232-1.6300403 5.8850807 0 2.4368401.5409892 4.3961619 1.6229839 5.8780242 1.0819947 1.4818622 2.5073836 2.2227822 4.2762097 2.2227822zm14.4092742-18.5302419h4.3467742v12.8004032c0 2.0228596.334002 3.4835305 1.0020161 4.3820565s1.7452883 1.3477822 3.2318548 1.3477822c1.4207061 0 2.4485856-.4280871 3.0836694-1.2842742.6350835-.856187.9526205-2.2345335.9526205-4.1350806v-13.1108871h3.782259v12.828629c0 1.9287731-.183466 3.3988525-.550404 4.4102823-.366937 1.0114298-1.034941 1.8887732-2.004032 2.6320564-1.32662 1.0255428-3.1095318 1.5383065-5.3487903 1.5383065-2.3992055 0-4.3279497-.5456935-5.7862903-1.6370968-1.0067255-.7526919-1.7100115-1.6441481-2.109879-2.6743951-.3998676-1.0302471-.5997984-2.4673967-.5997984-4.311492zm21.451613 20.8870968v-20.8870968h7.818548c4.243301 0 6.36492 1.72646123 6.36492 5.1794355 0 1.2889849-.359876 2.4626963-1.079637 3.5211693-.719762 1.0584731-1.710008 1.8699569-2.970767 2.4344758l6.830646 9.7520162h-5.292339l-5.179436-8.5383065h-2.399193v8.5383065zm4.092742-11.4032258h1.002016c3.151897 0 4.727823-1.2748529 4.727823-3.8245968 0-1.86291254-1.406572-2.79435484-4.219759-2.79435484h-1.51008z" fill="#396598"/><path d="m64.546371 59.8709677v-20.8870967h4.3467742v8.4818548h8.6370967v-8.4818548h4.3467742v20.8870967h-4.3467742v-9.5262096h-8.6370967v9.5262096zm35.1693548-.5221774c-1.985225.5833363-3.8669266.875-5.6451613.875-2.5873785 0-4.6290248-.7338636-6.125-2.2016129s-2.2439516-3.4717615-2.2439516-6.0120968c0-2.3992055.684469-4.3303018 2.0534274-5.7933467 1.3689585-1.463045 3.1777442-2.1945565 5.4264113-2.1945565 2.2674845 0 3.9233819.7150466 4.9677419 2.1451613 1.0443601 1.4301147 1.5665323 3.6928609 1.5665323 6.7883065h-9.6108871c.2822595 2.9543158 1.9052271 4.4314516 4.8689516 4.4314516 1.4018888 0 2.9825181-.3245936 4.7419355-.9737903zm-9.6673387-8.75h5.5604839c0-2.6438304-.85147-3.9657258-2.5544355-3.9657258-1.7311915 0-2.7331976 1.3218954-3.0060484 3.9657258zm21.5786289 7.6068549c-1.39248 1.3454368-2.883728 2.0181451-4.47379 2.0181451-1.354846 0-2.455641-.4139743-3.30242-1.2419355-.846778-.8279611-1.270161-1.900531-1.270161-3.2177419 0-1.7123742.684469-3.0319174 2.053428-3.9586694 1.368958-.9267519 3.32828-1.3901209 5.878024-1.3901209h1.114919v-1.4112903c0-1.6088791-.917329-2.4133065-2.752016-2.4133065-1.627696 0-3.274185.4610169-4.939516 1.3830645v-2.8790322c1.891138-.7150574 3.763431-1.0725807 5.616935-1.0725807 4.055128 0 6.082662 1.6135592 6.082662 4.8407258v6.858871c0 1.2137157.390453 1.8205645 1.171371 1.8205645.141129 0 .324595-.018817.550403-.0564516l.09879 2.3427419c-.884413.2634422-1.665319.3951613-2.342742.3951613-1.712374 0-2.813169-.6727083-3.302419-2.0181451zm0-2.2439517v-3.1471774h-.987903c-2.700282 0-4.050403.8467658-4.050403 2.5403226 0 .5739276.195226 1.0561136.585685 1.4465726.390459.3904589.872645.5856855 1.446573.5856855.978499 0 1.980505-.4751297 3.006048-1.4254033zm9.399194 3.9092742v-22.2842742h4.177419v22.2842742zm17.387096-.0846774c-.997316.2916681-1.782927.4375-2.356854.4375-3.62233 0-5.433468-1.6935314-5.433468-5.0806451v-8.1572581h-1.735887v-2.6108871h1.735887v-2.6108871l4.177419-.4798387v3.0907258h3.316532v2.6108871h-3.316532v7.6068548c0 1.9005472.776202 2.8508065 2.328629 2.8508065.357529 0 .785616-.0658596 1.284274-.1975807zm3.725807.0846774v-22.2842742h4.177419v9.7096775c1.364254-2.1828066 3.123645-3.2741936 5.278226-3.2741936 1.383071 0 2.474458.4374956 3.274194 1.3125.799735.8750044 1.199596 2.0698849 1.199596 3.5846774v10.9516129h-4.177419v-9.9213709c0-1.7594174-.583327-2.6391129-1.75-2.6391129-1.32662 0-2.601472.9361465-3.824597 2.8084677v9.7520161zm30.413306-.3387096c-1.731191.4610238-3.335342.6915322-4.8125.6915322-2.474474 0-4.429092-.7268072-5.863911-2.1804435s-2.152218-3.4317751-2.152218-5.9344758c0-2.5309267.738568-4.5114176 2.215726-5.9415323s3.518804-2.1451613 6.125-2.1451613c1.260759 0 2.714374.2022829 4.360887.6068549v3.0201612c-1.712374-.5551103-3.081312-.8326612-4.106855-.8326612-1.25135 0-2.25806.4798339-3.020161 1.4395161-.7621.9596822-1.143145 2.234535-1.143145 3.8245968 0 1.6276963.411622 2.9307746 1.234879 3.9092742.823257.9784995 1.9217 1.4677419 3.295363 1.4677419 1.25135 0 2.540316-.2728467 3.866935-.8185484zm11.544355-1.3266129c-1.39248 1.3454368-2.883728 2.0181451-4.47379 2.0181451-1.354846 0-2.455641-.4139743-3.302419-1.2419355-.846779-.8279611-1.270162-1.900531-1.270162-3.2177419 0-1.7123742.684469-3.0319174 2.053428-3.9586694 1.368958-.9267519 3.32828-1.3901209 5.878024-1.3901209h1.114919v-1.4112903c0-1.6088791-.917329-2.4133065-2.752016-2.4133065-1.627696 0-3.274185.4610169-4.939516 1.3830645v-2.8790322c1.891138-.7150574 3.763432-1.0725807 5.616935-1.0725807 4.055128 0 6.082662 1.6135592 6.082662 4.8407258v6.858871c0 1.2137157.390453 1.8205645 1.171371 1.8205645.141129 0 .324595-.018817.550403-.0564516l.09879 2.3427419c-.884413.2634422-1.665319.3951613-2.342742.3951613-1.712374 0-2.813169-.6727083-3.302419-2.0181451zm0-2.2439517v-3.1471774h-.987903c-2.700282 0-4.050403.8467658-4.050403 2.5403226 0 .5739276.195226 1.0561136.585685 1.4465726.390459.3904589.872645.5856855 1.446573.5856855.978499 0 1.980505-.4751297 3.006048-1.4254033zm9.399194 3.9092742v-15.4959677h4.177419v2.921371c1.081995-2.1828066 2.728484-3.2741936 4.939516-3.2741936.263442 0 .522176.0282255.77621.0846774v3.7258065c-.592745-.2163989-1.143143-.3245968-1.65121-.3245968-1.665331 0-3.020156.8420615-4.064516 2.5262097v9.8366935zm25.756048-.5221774c-1.985225.5833363-3.866926.875-5.645161.875-2.587379 0-4.629025-.7338636-6.125-2.2016129s-2.243952-3.4717615-2.243952-6.0120968c0-2.3992055.684469-4.3303018 2.053428-5.7933467 1.368958-1.463045 3.177744-2.1945565 5.426411-2.1945565 2.267484 0 3.923382.7150466 4.967742 2.1451613s1.566532 3.6928609 1.566532 6.7883065h-9.610887c.28226 2.9543158 1.905227 4.4314516 4.868952 4.4314516 1.401888 0 2.982518-.3245936 4.741935-.9737903zm-9.667339-8.75h5.560484c0-2.6438304-.85147-3.9657258-2.554435-3.9657258-1.731192 0-2.733198 1.3218954-3.006049 3.9657258zm18.262097 9.2721774v-20.8870967h4.346774v8.4818548h8.637097v-8.4818548h4.346774v20.8870967h-4.346774v-9.5262096h-8.637097v9.5262096zm22.55242 0v-20.8870967h4.177419v10.1330645l7.987903-10.1330645h3.612903l-7.239919 9.3709677 8.989919 11.516129h-5.433467l-7.917339-10.2741935v10.2741935z" fill="#4a4a4a"/></g></svg>